<?xml version="1.0" encoding="UTF-8"?><svg id="uuid-81c13b71-6511-4536-b226-11adb77c8cc5" xmlns="http://www.w3.org/2000/svg" viewBox="0 0 128.45 19.42"><defs><style>.uuid-a076641e-3e2d-4dc0-9c25-f5bfcd2e53da{fill:#002c99;}</style></defs><g id="uuid-b56075e1-8470-441d-baea-85726a350d01"><path class="uuid-a076641e-3e2d-4dc0-9c25-f5bfcd2e53da" d="m36.75,10.88V1.53h1.65v9.35h-1.65Z"/><path class="uuid-a076641e-3e2d-4dc0-9c25-f5bfcd2e53da" d="m41.84,8.36c.22.8.82,1.2,1.81,1.2.63,0,1.11-.21,1.43-.64l1.33.77c-.63.91-1.56,1.37-2.79,1.37-1.06,0-1.91-.32-2.55-.96s-.96-1.45-.96-2.42.32-1.77.95-2.41c.63-.64,1.44-.97,2.43-.97.94,0,1.71.32,2.32.97.61.65.92,1.45.92,2.41,0,.21-.02.44-.06.68h-4.83Zm-.03-1.28h3.27c-.09-.44-.29-.76-.58-.97-.29-.21-.63-.32-1.01-.32-.44,0-.81.11-1.1.34-.29.23-.48.54-.58.95Z"/><path class="uuid-a076641e-3e2d-4dc0-9c25-f5bfcd2e53da" d="m50.26,6.29c0,.17.11.31.34.42.23.11.5.2.83.28.32.08.65.18.97.31.32.12.6.33.83.62.23.29.34.65.34,1.09,0,.66-.25,1.16-.74,1.52-.49.35-1.1.53-1.84.53-1.32,0-2.21-.51-2.69-1.52l1.43-.81c.19.56.61.83,1.26.83.59,0,.88-.18.88-.55,0-.17-.11-.31-.34-.42-.23-.11-.5-.2-.83-.29-.32-.09-.65-.19-.97-.32-.32-.13-.6-.33-.83-.61-.23-.28-.34-.63-.34-1.04,0-.63.23-1.13.7-1.49.47-.36,1.04-.54,1.74-.54.52,0,.99.12,1.42.35.43.23.76.57,1.01,1.01l-1.41.77c-.2-.44-.55-.65-1.02-.65-.21,0-.39.05-.53.14-.14.09-.21.22-.21.38Z"/><path class="uuid-a076641e-3e2d-4dc0-9c25-f5bfcd2e53da" d="m58.75,7.27V1.91h1.65v3.32c.49-.62,1.18-.94,2.08-.94s1.6.33,2.21.98c.61.65.92,1.45.92,2.4s-.31,1.75-.92,2.4c-.61.65-1.35.98-2.21.98,0,0-3.73.51-3.73-3.79Zm2.15,1.71c.33.34.76.51,1.27.51s.94-.17,1.27-.51c.34-.34.51-.77.51-1.3s-.17-.96-.51-1.3c-.34-.34-.76-.51-1.27-.51s-.94.17-1.27.51c-.33.34-.5.77-.5,1.3s.17.96.5,1.3Z"/><path class="uuid-a076641e-3e2d-4dc0-9c25-f5bfcd2e53da" d="m93.19,7.27V1.91h1.65v3.32c.49-.62,1.18-.94,2.08-.94s1.6.33,2.21.98c.61.65.92,1.45.92,2.4s-.31,1.75-.92,2.4c-.61.65-1.35.98-2.21.98,0,0-3.73.51-3.73-3.79Zm2.15,1.71c.33.34.76.51,1.27.51s.94-.17,1.27-.51c.34-.34.51-.77.51-1.3s-.17-.96-.51-1.3c-.34-.34-.76-.51-1.27-.51s-.94.17-1.27.51c-.33.34-.5.77-.5,1.3s.17.96.5,1.3Z"/><path class="uuid-a076641e-3e2d-4dc0-9c25-f5bfcd2e53da" d="m73.05,10.08c-.66.65-1.46.98-2.41.98s-1.75-.33-2.4-.98-.98-1.45-.98-2.4.33-1.75.98-2.4,1.45-.98,2.4-.98,1.75.33,2.41.98c.66.65.99,1.45.99,2.4s-.33,1.75-.99,2.4Zm-3.64-1.13c.33.33.74.5,1.24.5s.91-.17,1.24-.5.5-.76.5-1.27-.17-.94-.5-1.27c-.33-.33-.75-.5-1.24-.5s-.91.17-1.24.5c-.33.33-.49.76-.49,1.27s.16.94.49,1.27Z"/><path class="uuid-a076641e-3e2d-4dc0-9c25-f5bfcd2e53da" d="m79.29,4.3c.7,0,1.28.23,1.74.7.46.47.69,1.12.69,1.95v3.93h-1.65v-3.73c0-.43-.12-.75-.35-.98-.23-.23-.54-.34-.92-.34-.43,0-.77.13-1.02.4-.26.26-.38.66-.38,1.19v3.46h-1.65v-6.4h1.65v.43c.42-.42,1.04-.61,1.91-.61Z"/><path class="uuid-a076641e-3e2d-4dc0-9c25-f5bfcd2e53da" d="m117.16,4.3c.7,0,1.28.23,1.74.7.46.47.69,1.12.69,1.95v3.93h-1.65v-3.73c0-.43-.12-.75-.35-.98-.23-.23-.54-.34-.92-.34-.43,0-.77.13-1.02.4-.26.26-.38.66-.38,1.19v3.46h-1.65v-6.4h1.65v.43c.42-.42,1.04-.61,1.91-.61Z"/><path class="uuid-a076641e-3e2d-4dc0-9c25-f5bfcd2e53da" d="m85.31,6.29c0,.17.11.31.34.42.23.11.5.2.83.28.32.08.65.18.97.31.32.12.6.33.83.62.23.29.34.65.34,1.09,0,.66-.25,1.16-.74,1.52-.49.35-1.1.53-1.84.53-1.32,0-2.21-.51-2.69-1.52l1.43-.81c.19.56.61.83,1.26.83.59,0,.88-.18.88-.55,0-.17-.11-.31-.34-.42-.23-.11-.5-.2-.83-.29-.32-.09-.65-.19-.97-.32-.32-.13-.6-.33-.83-.61-.23-.28-.34-.63-.34-1.04,0-.63.23-1.13.7-1.49.47-.36,1.04-.54,1.74-.54.52,0,.99.12,1.42.35.43.23.76.57,1.01,1.01l-1.41.77c-.2-.44-.55-.65-1.02-.65-.21,0-.39.05-.53.14-.14.09-.21.22-.21.38Z"/><path class="uuid-a076641e-3e2d-4dc0-9c25-f5bfcd2e53da" d="m102.79,3.71c-.27,0-.51-.1-.71-.3-.2-.2-.3-.44-.3-.71s.1-.51.3-.72c.2-.2.44-.31.71-.31s.52.1.72.31c.2.2.3.44.3.72s-.1.51-.3.71c-.2.2-.44.3-.72.3Zm-.82,7.17v-6.4h1.65v6.4h-1.65Z"/><path class="uuid-a076641e-3e2d-4dc0-9c25-f5bfcd2e53da" d="m107.06,8.36c.22.8.82,1.2,1.81,1.2.63,0,1.11-.21,1.43-.64l1.33.77c-.63.91-1.56,1.37-2.79,1.37-1.06,0-1.91-.32-2.55-.96-.64-.64-.96-1.45-.96-2.42s.32-1.77.95-2.41c.63-.64,1.44-.97,2.43-.97.94,0,1.71.32,2.32.97.61.65.92,1.45.92,2.41,0,.21-.02.44-.06.68h-4.83Zm-.03-1.28h3.27c-.09-.44-.29-.76-.58-.97-.29-.21-.63-.32-1.01-.32-.44,0-.81.11-1.1.34-.29.23-.48.54-.58.95Z"/><path class="uuid-a076641e-3e2d-4dc0-9c25-f5bfcd2e53da" d="m122.94,6.29c0,.17.11.31.34.42.23.11.5.2.83.28.32.08.65.18.97.31.32.12.6.33.83.62.23.29.34.65.34,1.09,0,.66-.25,1.16-.74,1.52-.49.35-1.1.53-1.84.53-1.32,0-2.21-.51-2.69-1.52l1.43-.81c.19.56.61.83,1.26.83.59,0,.88-.18.88-.55,0-.17-.11-.31-.34-.42-.23-.11-.5-.2-.83-.29-.32-.09-.65-.19-.97-.32-.32-.13-.6-.33-.83-.61-.23-.28-.34-.63-.34-1.04,0-.63.23-1.13.7-1.49.47-.36,1.04-.54,1.74-.54.52,0,.99.12,1.42.35.43.23.76.57,1.01,1.01l-1.41.77c-.2-.44-.55-.65-1.02-.65-.21,0-.39.05-.53.14-.14.09-.21.22-.21.38Z"/><path class="uuid-a076641e-3e2d-4dc0-9c25-f5bfcd2e53da" d="m37.6,15.5h.52v2.38h1.47v.44h-2v-2.82Z"/><path class="uuid-a076641e-3e2d-4dc0-9c25-f5bfcd2e53da" d="m41.49,15.63c0,.09-.02.16-.09.35l-.21.57h-.33l.16-.62c-.11-.04-.19-.15-.19-.3,0-.2.14-.33.33-.33s.33.14.33.33Z"/><path class="uuid-a076641e-3e2d-4dc0-9c25-f5bfcd2e53da" d="m43.25,15.5h.52v2.82h-.52v-2.82Z"/><path class="uuid-a076641e-3e2d-4dc0-9c25-f5bfcd2e53da" d="m48.35,18.32v-1.87s-.93,1.55-.93,1.55h-.23l-.93-1.52v1.84h-.5v-2.82h.43l1.12,1.87,1.1-1.87h.43v2.82s-.49,0-.49,0Z"/><path class="uuid-a076641e-3e2d-4dc0-9c25-f5bfcd2e53da" d="m53.42,18.32v-1.87s-.93,1.55-.93,1.55h-.23l-.93-1.52v1.84h-.5v-2.82h.43l1.12,1.87,1.1-1.87h.43v2.82s-.49,0-.49,0Z"/><path class="uuid-a076641e-3e2d-4dc0-9c25-f5bfcd2e53da" d="m55.7,16.91c0-.83.64-1.45,1.52-1.45s1.52.61,1.52,1.45-.64,1.45-1.52,1.45-1.52-.62-1.52-1.45Zm2.51,0c0-.58-.42-.99-.99-.99s-.99.42-.99.99.42.99.99.99.99-.42.99-.99Z"/><path class="uuid-a076641e-3e2d-4dc0-9c25-f5bfcd2e53da" d="m63.02,17.55c0,.48-.38.77-1.1.77h-1.4v-2.82h1.32c.68,0,1.04.29,1.04.73,0,.29-.15.5-.36.62.3.1.51.33.51.7Zm-1.98-1.64v.78h.74c.36,0,.57-.13.57-.39s-.21-.39-.57-.39h-.74Zm1.45,1.59c0-.28-.21-.41-.61-.41h-.85v.81h.85c.39,0,.61-.12.61-.41Z"/><path class="uuid-a076641e-3e2d-4dc0-9c25-f5bfcd2e53da" d="m64.81,15.5h.52v2.82h-.52v-2.82Z"/><path class="uuid-a076641e-3e2d-4dc0-9c25-f5bfcd2e53da" d="m67.31,15.5h.52v2.38h1.47v.44h-2v-2.82Z"/><path class="uuid-a076641e-3e2d-4dc0-9c25-f5bfcd2e53da" d="m70.95,15.5h.52v2.82h-.52v-2.82Z"/><path class="uuid-a076641e-3e2d-4dc0-9c25-f5bfcd2e53da" d="m75.57,17.88v.44h-2.11v-2.82h2.06v.44h-1.54v.73h1.36v.43h-1.36v.78h1.59Z"/><path class="uuid-a076641e-3e2d-4dc0-9c25-f5bfcd2e53da" d="m79.22,18.32l-.58-.83s-.07,0-.11,0h-.64v.82h-.52v-2.82h1.16c.74,0,1.2.38,1.2,1,0,.43-.22.74-.6.89l.65.93h-.56Zm-.71-2.38h-.61v1.12h.61c.46,0,.7-.21.7-.56s-.24-.56-.7-.56Z"/><path class="uuid-a076641e-3e2d-4dc0-9c25-f5bfcd2e53da" d="m85.73,18.32l-.58-.83s-.07,0-.11,0h-.64v.82h-.52v-2.82h1.16c.74,0,1.2.38,1.2,1,0,.43-.22.74-.6.89l.65.93h-.56Zm-.71-2.38h-.61v1.12h.61c.46,0,.7-.21.7-.56s-.24-.56-.7-.56Z"/><path class="uuid-a076641e-3e2d-4dc0-9c25-f5bfcd2e53da" d="m90.16,17.88v.44h-2.11v-2.82h2.06v.44h-1.54v.73h1.36v.43h-1.36v.78h1.59Z"/><path class="uuid-a076641e-3e2d-4dc0-9c25-f5bfcd2e53da" d="m91.73,18.02l.18-.41c.23.18.58.31.93.31.44,0,.62-.16.62-.37,0-.61-1.68-.21-1.68-1.26,0-.46.36-.84,1.14-.84.34,0,.69.09.94.25l-.17.41c-.25-.15-.53-.22-.78-.22-.43,0-.61.17-.61.38,0,.6,1.67.21,1.67,1.24,0,.45-.37.84-1.14.84-.44,0-.88-.14-1.11-.34Z"/><path class="uuid-a076641e-3e2d-4dc0-9c25-f5bfcd2e53da" d="m98.09,16.5c0,.62-.46,1-1.2,1h-.64v.81h-.52v-2.82h1.16c.74,0,1.2.38,1.2,1Zm-.53,0c0-.35-.24-.56-.7-.56h-.61v1.12h.61c.46,0,.7-.21.7-.56Z"/><path class="uuid-a076641e-3e2d-4dc0-9c25-f5bfcd2e53da" d="m99.68,16.91c0-.83.64-1.45,1.52-1.45s1.52.61,1.52,1.45-.64,1.45-1.52,1.45-1.52-.62-1.52-1.45Zm2.51,0c0-.58-.42-.99-.99-.99s-.99.42-.99.99.42.99.99.99.99-.42.99-.99Z"/><path class="uuid-a076641e-3e2d-4dc0-9c25-f5bfcd2e53da" d="m107,15.5v2.82h-.43l-1.55-1.91v1.91h-.52v-2.82h.43l1.55,1.91v-1.91h.52Z"/><path class="uuid-a076641e-3e2d-4dc0-9c25-f5bfcd2e53da" d="m108.74,18.02l.18-.41c.23.18.58.31.93.31.44,0,.62-.16.62-.37,0-.61-1.68-.21-1.68-1.26,0-.46.36-.84,1.14-.84.34,0,.69.09.94.25l-.17.41c-.25-.15-.53-.22-.78-.22-.43,0-.61.17-.61.38,0,.6,1.67.21,1.67,1.24,0,.45-.37.84-1.14.84-.44,0-.88-.14-1.11-.34Z"/><path class="uuid-a076641e-3e2d-4dc0-9c25-f5bfcd2e53da" d="m114.56,17.67h-1.41l-.28.65h-.54l1.27-2.82h.52l1.27,2.82h-.55l-.28-.65Zm-.17-.41l-.53-1.23-.53,1.23h1.06Z"/><path class="uuid-a076641e-3e2d-4dc0-9c25-f5bfcd2e53da" d="m119.48,17.55c0,.48-.38.77-1.1.77h-1.4v-2.82h1.32c.68,0,1.04.29,1.04.73,0,.29-.14.5-.36.62.3.1.51.33.51.7Zm-1.98-1.64v.78h.74c.36,0,.57-.13.57-.39s-.21-.39-.57-.39h-.74Zm1.45,1.59c0-.28-.21-.41-.61-.41h-.85v.81h.85c.4,0,.61-.12.61-.41Z"/><path class="uuid-a076641e-3e2d-4dc0-9c25-f5bfcd2e53da" d="m121.27,15.5h.52v2.38h1.47v.44h-2v-2.82Z"/><path class="uuid-a076641e-3e2d-4dc0-9c25-f5bfcd2e53da" d="m127.02,17.88v.44h-2.11v-2.82h2.06v.44h-1.54v.73h1.36v.43h-1.36v.78h1.59Z"/><polygon class="uuid-a076641e-3e2d-4dc0-9c25-f5bfcd2e53da" points="17.82 6.84 13.53 3.27 9.39 6.84 5.69 6.84 13.53 0 20.19 5.5 17.82 6.84"/><rect class="uuid-a076641e-3e2d-4dc0-9c25-f5bfcd2e53da" x="21.17" y="13.53" width="2.66" height="4.02"/><polygon class="uuid-a076641e-3e2d-4dc0-9c25-f5bfcd2e53da" points="13.18 19.42 10.52 19.42 10.52 9.52 2.66 9.52 2.66 14.39 0 14.39 0 6.84 13.18 6.84 13.18 19.42"/><path class="uuid-a076641e-3e2d-4dc0-9c25-f5bfcd2e53da" d="m15.86,10.88c0-3.68,2.98-6.65,6.65-6.65s6.65,2.98,6.65,6.65v2.65h-2.67v-2.61c0-2.33-1.74-4.09-4-4.09s-4,1.53-4,4.02h-2.66"/></g></svg>